{
	"asset":{
		"generator":"Khronos glTF Blender I/O v4.0.44",
		"version":"2.0"
	},
	"scene":0,
	"scenes":[
		{
			"name":"Scene",
			"nodes":[
				3,
				4,
				5,
				6,
				7,
				8,
				9,
				10,
				11
			]
		}
	],
	"nodes":[
		{
			"mesh":0,
			"name":"BlueTall",
			"rotation":[
				0,
				0.3884395956993103,
				0,
				0.9214742183685303
			],
			"translation":[
				-22.42355728149414,
				0,
				-25.097856521606445
			]
		},
		{
			"mesh":1,
			"name":"Cube",
			"scale":[
				0.5,
				0.5,
				0.5
			],
			"translation":[
				29,
				0,
				-30
			]
		},
		{
			"mesh":2,
			"name":"GreenCube"
		},
		{
			"children":[
				0,
				1,
				2
			],
			"name":"Empty",
			"translation":[
				0,
				0,
				30
			]
		},
		{
			"mesh":3,
			"name":"Original"
		},
		{
			"mesh":3,
			"name":"pos_BlueTall",
			"rotation":[
				0,
				0.38843998312950134,
				0,
				0.921474039554596
			],
			"translation":[
				-22.42355728149414,
				0,
				4.902143478393555
			]
		},
		{
			"mesh":3,
			"name":"pos_Cube",
			"translation":[
				21.5,
				0,
				7.5
			]
		},
		{
			"mesh":3,
			"name":"pos_GreenCube",
			"rotation":[
				0,
				-0.38268330693244934,
				0,
				0.9238796234130859
			],
			"translation":[
				-14.142135620117188,
				0,
				30
			]
		},
		{
			"mesh":3,
			"name":"Original.001"
		},
		{
			"mesh":4,
			"name":"cube-blue"
		},
		{
			"mesh":5,
			"name":"cube-green"
		},
		{
			"mesh":6,
			"name":"cube-red"
		}
	],
	"materials":[
		{
			"doubleSided":true,
			"name":"Blue",
			"pbrMetallicRoughness":{
				"baseColorFactor":[
					0.20019963383674622,
					0.19002678990364075,
					0.7999997735023499,
					1
				],
				"metallicFactor":0
			}
		},
		{
			"doubleSided":true,
			"name":"Red",
			"pbrMetallicRoughness":{
				"baseColorFactor":[
					0.7999996542930603,
					0.07735374569892883,
					0.09331050515174866,
					1
				],
				"metallicFactor":0,
				"roughnessFactor":0.5
			}
		},
		{
			"doubleSided":true,
			"name":"Green",
			"pbrMetallicRoughness":{
				"baseColorFactor":[
					0.07344985008239746,
					0.7999998927116394,
					0.08278430998325348,
					1
				],
				"metallicFactor":0,
				"roughnessFactor":0.5
			}
		},
		{
			"doubleSided":true,
			"name":"Material",
			"pbrMetallicRoughness":{
				"baseColorFactor":[
					0.800000011920929,
					0.800000011920929,
					0.800000011920929,
					1
				],
				"metallicFactor":0,
				"roughnessFactor":0.5
			}
		}
	],
	"meshes":[
		{
			"name":"BlueTall",
			"primitives":[
				{
					"attributes":{
						"POSITION":0,
						"NORMAL":1,
						"TEXCOORD_0":2
					},
					"indices":3,
					"material":0
				}
			]
		},
		{
			"name":"Cube",
			"primitives":[
				{
					"attributes":{
						"POSITION":4,
						"NORMAL":5,
						"TEXCOORD_0":6
					},
					"indices":3,
					"material":1
				}
			]
		},
		{
			"name":"GreenCube",
			"primitives":[
				{
					"attributes":{
						"POSITION":7,
						"NORMAL":8,
						"TEXCOORD_0":9
					},
					"indices":10,
					"material":2
				}
			]
		},
		{
			"name":"Cube.001",
			"primitives":[
				{
					"attributes":{
						"POSITION":11,
						"NORMAL":12,
						"TEXCOORD_0":13
					},
					"indices":14
				}
			]
		},
		{
			"name":"cube-blue",
			"primitives":[
				{
					"attributes":{
						"POSITION":15,
						"NORMAL":16
					},
					"indices":17,
					"material":3
				}
			]
		},
		{
			"name":"cube-green",
			"primitives":[
				{
					"attributes":{
						"POSITION":18,
						"NORMAL":19
					},
					"indices":20
				}
			]
		},
		{
			"name":"cube-red",
			"primitives":[
				{
					"attributes":{
						"POSITION":21,
						"NORMAL":22
					},
					"indices":23
				}
			]
		}
	],
	"accessors":[
		{
			"bufferView":0,
			"componentType":5126,
			"count":24,
			"max":[
				20,
				29,
				0
			],
			"min":[
				9.5367431640625e-07,
				0,
				-20
			],
			"type":"VEC3"
		},
		{
			"bufferView":1,
			"componentType":5126,
			"count":24,
			"type":"VEC3"
		},
		{
			"bufferView":2,
			"componentType":5126,
			"count":24,
			"type":"VEC2"
		},
		{
			"bufferView":3,
			"componentType":5123,
			"count":36,
			"type":"SCALAR"
		},
		{
			"bufferView":4,
			"componentType":5126,
			"count":24,
			"max":[
				15,
				30,
				15
			],
			"min":[
				-15,
				0,
				-15
			],
			"type":"VEC3"
		},
		{
			"bufferView":5,
			"componentType":5126,
			"count":24,
			"type":"VEC3"
		},
		{
			"bufferView":6,
			"componentType":5126,
			"count":24,
			"type":"VEC2"
		},
		{
			"bufferView":7,
			"componentType":5126,
			"count":24,
			"max":[
				14.142135620117188,
				20,
				14.142135620117188
			],
			"min":[
				-14.142135620117188,
				0,
				-14.142135620117188
			],
			"type":"VEC3"
		},
		{
			"bufferView":8,
			"componentType":5126,
			"count":24,
			"type":"VEC3"
		},
		{
			"bufferView":9,
			"componentType":5126,
			"count":24,
			"type":"VEC2"
		},
		{
			"bufferView":10,
			"componentType":5123,
			"count":36,
			"type":"SCALAR"
		},
		{
			"bufferView":11,
			"componentType":5126,
			"count":24,
			"max":[
				0,
				2,
				0
			],
			"min":[
				-1,
				0,
				-10
			],
			"type":"VEC3"
		},
		{
			"bufferView":12,
			"componentType":5126,
			"count":24,
			"type":"VEC3"
		},
		{
			"bufferView":13,
			"componentType":5126,
			"count":24,
			"type":"VEC2"
		},
		{
			"bufferView":14,
			"componentType":5123,
			"count":36,
			"type":"SCALAR"
		},
		{
			"bufferView":15,
			"componentType":5126,
			"count":2582,
			"max":[
				-11.95009994506836,
				14.800000190734863,
				4.902140140533447
			],
			"min":[
				-33.16170120239258,
				0,
				-16.30940055847168
			],
			"type":"VEC3"
		},
		{
			"bufferView":16,
			"componentType":5126,
			"count":2582,
			"type":"VEC3"
		},
		{
			"bufferView":17,
			"componentType":5123,
			"count":4764,
			"type":"SCALAR"
		},
		{
			"bufferView":18,
			"componentType":5126,
			"count":2008,
			"max":[
				7.071070194244385,
				11.199999809265137,
				40.60660171508789
			],
			"min":[
				-14.14210033416748,
				0,
				19.393400192260742
			],
			"type":"VEC3"
		},
		{
			"bufferView":19,
			"componentType":5126,
			"count":2008,
			"type":"VEC3"
		},
		{
			"bufferView":20,
			"componentType":5123,
			"count":3744,
			"type":"SCALAR"
		},
		{
			"bufferView":21,
			"componentType":5126,
			"count":1380,
			"max":[
				36.5,
				7.599999904632568,
				7.5
			],
			"min":[
				21.5,
				0,
				-7.5
			],
			"type":"VEC3"
		},
		{
			"bufferView":22,
			"componentType":5126,
			"count":1380,
			"type":"VEC3"
		},
		{
			"bufferView":23,
			"componentType":5123,
			"count":2724,
			"type":"SCALAR"
		}
	],
	"bufferViews":[
		{
			"buffer":0,
			"byteLength":288,
			"byteOffset":0,
			"target":34962
		},
		{
			"buffer":0,
			"byteLength":288,
			"byteOffset":288,
			"target":34962
		},
		{
			"buffer":0,
			"byteLength":192,
			"byteOffset":576,
			"target":34962
		},
		{
			"buffer":0,
			"byteLength":72,
			"byteOffset":768,
			"target":34963
		},
		{
			"buffer":0,
			"byteLength":288,
			"byteOffset":840,
			"target":34962
		},
		{
			"buffer":0,
			"byteLength":288,
			"byteOffset":1128,
			"target":34962
		},
		{
			"buffer":0,
			"byteLength":192,
			"byteOffset":1416,
			"target":34962
		},
		{
			"buffer":0,
			"byteLength":288,
			"byteOffset":1608,
			"target":34962
		},
		{
			"buffer":0,
			"byteLength":288,
			"byteOffset":1896,
			"target":34962
		},
		{
			"buffer":0,
			"byteLength":192,
			"byteOffset":2184,
			"target":34962
		},
		{
			"buffer":0,
			"byteLength":72,
			"byteOffset":2376,
			"target":34963
		},
		{
			"buffer":0,
			"byteLength":288,
			"byteOffset":2448,
			"target":34962
		},
		{
			"buffer":0,
			"byteLength":288,
			"byteOffset":2736,
			"target":34962
		},
		{
			"buffer":0,
			"byteLength":192,
			"byteOffset":3024,
			"target":34962
		},
		{
			"buffer":0,
			"byteLength":72,
			"byteOffset":3216,
			"target":34963
		},
		{
			"buffer":0,
			"byteLength":30984,
			"byteOffset":3288,
			"target":34962
		},
		{
			"buffer":0,
			"byteLength":30984,
			"byteOffset":34272,
			"target":34962
		},
		{
			"buffer":0,
			"byteLength":9528,
			"byteOffset":65256,
			"target":34963
		},
		{
			"buffer":0,
			"byteLength":24096,
			"byteOffset":74784,
			"target":34962
		},
		{
			"buffer":0,
			"byteLength":24096,
			"byteOffset":98880,
			"target":34962
		},
		{
			"buffer":0,
			"byteLength":7488,
			"byteOffset":122976,
			"target":34963
		},
		{
			"buffer":0,
			"byteLength":16560,
			"byteOffset":130464,
			"target":34962
		},
		{
			"buffer":0,
			"byteLength":16560,
			"byteOffset":147024,
			"target":34962
		},
		{
			"buffer":0,
			"byteLength":5448,
			"byteOffset":163584,
			"target":34963
		}
	],
	"buffers":[
		{
			"byteLength":169032,
			"uri":"cubes.bin"
		}
	]
}
